<?xml version="1.0" standalone="no"?><?xml-stylesheet type="text/css" href="https://www.processon.com/themes/default/mind/icons/icons.css" ?><!DOCTYPE svg PUBLIC "-//W3C//DTD SVG 1.1//EN" "http://www.w3.org/Graphics/SVG/1.1/DTD/svg11.dtd"><svg xmlns="http://www.w3.org/2000/svg" xlink="http://www.w3.org/1999/xlink" id="mind-svg-con" version="1.1" width="1545px" height="1057.234375px" style="position: absolute; left: 0px; top: 0px; width: 1545px; height: 1057.23px; background: rgb(255, 255, 255); z-index: 999;"><defs></defs><g id="svgbackgroundid"><defs></defs><rect x="0" y="0" width="1545" height="1057.234375" fill="#FFFFFF"></rect></g><g transform="translate(-9828.5, -9393.5)" id="sdjakdjak9"><defs></defs><g class="svg-topic-con" transform="translate(0.5,0.5)"><path part="right" sub="true" id="line_812b3a9306dd" d="M 10000 9936 L 10136.5 9936 C 10176.5 9936 10176.5 9497.6328125 10241.5 9497.6328125 L 10241.5 9497.6328125 L 10333.5 9497.6328125" stroke="#DD489D" fill="none" stroke-width="3"></path><path part="right" sub="true" id="line_0291282e6d37" d="M 10000 9936 L 10136.5 9936 C 10176.5 9936 10176.5 9623.515625 10241.5 9623.515625 L 10241.5 9623.515625 L 10349.5 9623.515625" stroke="#02ACF4" fill="none" stroke-width="3"></path><path part="right" sub="true" id="line_78376c5ca10c" d="M 10000 9936 L 10136.5 9936 C 10176.5 9936 10176.5 9726.515625 10241.5 9726.515625 L 10241.5 9726.515625 L 10365.5 9726.515625" stroke="#FA5465" fill="none" stroke-width="3"></path><path part="right" sub="true" id="line_49e463ba2cfc4206" d="M 10000 9936 L 10136.5 9936 C 10176.5 9936 10176.5 9895.8671875 10241.5 9895.8671875 L 10241.5 9895.8671875 L 10301.5 9895.8671875" stroke="#FCB52A" fill="none" stroke-width="3"></path><path part="right" sub="true" id="line_c3c5045d6e586609" d="M 10000 9936 L 10136.5 9936 C 10176.5 9936 10176.5 10074.09375 10241.5 10074.09375 L 10241.5 10074.09375 L 10349.5 10074.09375" stroke="#FD5155" fill="none" stroke-width="3"></path><path part="right" sub="true" id="line_fe4ffad78f3096c8" d="M 10000 9936 L 10136.5 9936 C 10176.5 9936 10176.5 10208.6328125 10241.5 10208.6328125 L 10241.5 10208.6328125 L 10301.5 10208.6328125" stroke="#0F80C4" fill="none" stroke-width="3"></path><path part="right" sub="true" id="line_2752677b67c5c72e" d="M 10000 9936 L 10136.5 9936 C 10176.5 9936 10176.5 10315.0625 10241.5 10315.0625 L 10241.5 10315.0625 L 10301.5 10315.0625" stroke="#0FBAB0" fill="none" stroke-width="3"></path><path part="right" sub="true" id="line_e2464c2f242a958e" d="M 10000 9936 L 10136.5 9936 C 10176.5 9936 10176.5 10399.515625 10241.5 10399.515625 L 10241.5 10399.515625 L 10317.5 10399.515625" stroke="#80BA4C" fill="none" stroke-width="3"></path></g><g class="svg-connection-con" transform="translate(0.5,0.5)"></g><g class="svg-freesums-con" transform="translate(0.5,0.5)"></g><g class="svg-freebos-con" transform="translate(0.5,0.5)"></g></g><g id="e2464c2f242a958e"><rect x="413" y="973.453125" rx="1px" ry="1px" width="76" height="33" style="fill: transparent; stroke:none;"></rect><g><text text-anchor="start" align="top" anchor="start" font-size="16px" font-weight="normal" fill="rgb(13, 11, 34)" style="font-size:16px;font-family:微软雅黑;color:#0D0B22;font-style:normal;text-align:left;font-weight:normal;"><tspan x="427" y="995"><tspan>做公司</tspan></tspan></text></g></g><g id="0f5d79f8f0344628"><rect x="565" y="954" rx="1px" ry="1px" width="603" height="27" style="fill: transparent; stroke:none;"></rect><g><text text-anchor="start" align="top" anchor="start" font-size="13px" font-weight="400" fill="rgb(13, 11, 34)" style="font-size:13px;font-family:微软雅黑;color:#0D0B22;font-style:normal;text-align:left;font-weight:400;"><tspan x="574" y="973"><tspan>放下你的情绪，让一切不要基于恐惧，你会为它注入能量，你周围的人会吸收到能量，他们会爱上这里</tspan></tspan></text></g></g><g id="ed204c3c5d432061"><rect x="565" y="998.234375" rx="1px" ry="1px" width="252" height="27" style="fill: transparent; stroke:none;"></rect><g><text text-anchor="start" align="top" anchor="start" font-size="13px" font-weight="400" fill="rgb(13, 11, 34)" style="font-size:13px;font-family:微软雅黑;color:#0D0B22;font-style:normal;text-align:left;font-weight:400;"><tspan x="574" y="1017"><tspan>你要营造一种环境，带来爱、无私的环境</tspan></tspan></text></g></g><g id="2752677b67c5c72e"><rect x="413" y="889" rx="1px" ry="1px" width="60" height="33" style="fill: transparent; stroke:none;"></rect><g><text text-anchor="start" align="top" anchor="start" font-size="16px" font-weight="normal" fill="rgb(13, 11, 34)" style="font-size:16px;font-family:微软雅黑;color:#0D0B22;font-style:normal;text-align:left;font-weight:normal;"><tspan x="427" y="910"><tspan>亲子</tspan></tspan></text></g></g><g id="275a34322e42941e"><rect x="549" y="891.6640625" rx="1px" ry="1px" width="720" height="27" style="fill: transparent; stroke:none;"></rect><g><text text-anchor="start" align="top" anchor="start" font-size="13px" font-weight="400" fill="rgb(13, 11, 34)" style="font-size:13px;font-family:微软雅黑;color:#0D0B22;font-style:normal;text-align:left;font-weight:400;"><tspan x="558" y="911"><tspan>当你养孩子的时候，让一切自然而然地发生，该换尿布就去换尿布。如果你抱着情绪去做，会影响到孩子对于世界的感知。</tspan></tspan></text></g></g><g id="fe4ffad78f3096c8"><rect x="413" y="782.5703125" rx="1px" ry="1px" width="60" height="33" style="fill: transparent; stroke:none;"></rect><g><text text-anchor="start" align="top" anchor="start" font-size="16px" font-weight="normal" fill="rgb(13, 11, 34)" style="font-size:16px;font-family:微软雅黑;color:#0D0B22;font-style:normal;text-align:left;font-weight:normal;"><tspan x="427" y="804"><tspan>成功</tspan></tspan></text></g></g><g id="45b9851a890b3353"><rect x="549" y="741" rx="1px" ry="1px" width="564" height="27" style="fill: transparent; stroke:none;"></rect><g><text text-anchor="start" align="top" anchor="start" font-size="13px" font-weight="400" fill="rgb(13, 11, 34)" style="font-size:13px;font-family:微软雅黑;color:#0D0B22;font-style:normal;text-align:left;font-weight:400;"><tspan x="558" y="760"><tspan>成功不是指某一刻你的拥有，因为拥有总会变，成功是指你想要的因为这些拥有带来的爱和喜悦</tspan></tspan></text></g></g><g id="0a123b4853a7bebc"><rect x="549" y="785.234375" rx="1px" ry="1px" width="434" height="27" style="fill: transparent; stroke:none;"></rect><g><text text-anchor="start" align="top" anchor="start" font-size="13px" font-weight="400" fill="rgb(13, 11, 34)" style="font-size:13px;font-family:微软雅黑;color:#0D0B22;font-style:normal;text-align:left;font-weight:400;"><tspan x="558" y="804"><tspan>当你对这个世界充满爱，你活在喜悦之中，你体会到你自己的神圣和光辉</tspan></tspan></text></g></g><g id="7daa74f6f569f353"><rect x="549" y="829.46875" rx="1px" ry="1px" width="330" height="27" style="fill: transparent; stroke:none;"></rect><g><text text-anchor="start" align="top" anchor="start" font-size="13px" font-weight="400" fill="rgb(13, 11, 34)" style="font-size:13px;font-family:微软雅黑;color:#0D0B22;font-style:normal;text-align:left;font-weight:400;"><tspan x="558" y="849"><tspan>当你把目光从那些阻碍你的事务上移开，你会获得成功</tspan></tspan></text></g></g><g id="c3c5045d6e586609"><rect x="413" y="648.03125" rx="1px" ry="1px" width="108" height="33" style="fill: transparent; stroke:none;"></rect><g><text text-anchor="start" align="top" anchor="start" font-size="16px" font-weight="normal" fill="rgb(13, 11, 34)" style="font-size:16px;font-family:微软雅黑;color:#0D0B22;font-style:normal;text-align:left;font-weight:normal;"><tspan x="427" y="669"><tspan>能量的流动</tspan></tspan></text></g></g><g id="8a7449cf63c37bef"><rect x="597" y="620" rx="1px" ry="1px" width="538" height="27" style="fill: transparent; stroke:none;"></rect><g><text text-anchor="start" align="top" anchor="start" font-size="13px" font-weight="400" fill="rgb(13, 11, 34)" style="font-size:13px;font-family:微软雅黑;color:#0D0B22;font-style:normal;text-align:left;font-weight:400;"><tspan x="606" y="639"><tspan>一切都是能量的流动，静静观察它，一切的爱和智慧都在你的本我就存在着，无需外界给予</tspan></tspan></text></g></g><g id="927671371f4b5dbd"><rect x="597" y="664.234375" rx="1px" ry="1px" width="918" height="44" style="fill: transparent; stroke:none;"></rect><g><text text-anchor="start" align="top" anchor="start" font-size="13px" font-weight="400" fill="rgb(13, 11, 34)" style="font-size:13px;font-family:微软雅黑;color:#0D0B22;font-style:normal;text-align:left;font-weight:400;"><tspan x="606" y="682"><tspan>当你遇到能量阻碍（消极的现实）时，你自身会产生一些情绪，情绪也是能量，释放这些能量（不要推开，不要陷进去），你的能量会再次流动起来，最终会</tspan></tspan><tspan x="606" y="700.2"><tspan>让你的能量越来越强大</tspan></tspan></text></g></g><g id="49e463ba2cfc4206"><rect x="413" y="469.8046875" rx="1px" ry="1px" width="60" height="33" style="fill: transparent; stroke:none;"></rect><g><text text-anchor="start" align="top" anchor="start" font-size="16px" font-weight="normal" fill="rgb(13, 11, 34)" style="font-size:16px;font-family:微软雅黑;color:#0D0B22;font-style:normal;text-align:left;font-weight:normal;"><tspan x="427" y="491"><tspan>自我</tspan></tspan></text></g></g><g id="eb032b2a5cf1cdba"><rect x="549" y="384" rx="1px" ry="1px" width="291" height="27" style="fill: transparent; stroke:none;"></rect><g><text text-anchor="start" align="top" anchor="start" font-size="13px" font-weight="400" fill="rgb(13, 11, 34)" style="font-size:13px;font-family:微软雅黑;color:#0D0B22;font-style:normal;text-align:left;font-weight:400;"><tspan x="558" y="403"><tspan>自我不是身体，而我观察和意识这个世界的主体</tspan></tspan></text></g></g><g id="8594054089fdcaec"><rect x="549" y="428.234375" rx="1px" ry="1px" width="356" height="27" style="fill: transparent; stroke:none;"></rect><g><text text-anchor="start" align="top" anchor="start" font-size="13px" font-weight="400" fill="rgb(13, 11, 34)" style="font-size:13px;font-family:微软雅黑;color:#0D0B22;font-style:normal;text-align:left;font-weight:400;"><tspan x="558" y="447"><tspan>你不是现实的你，而是保持着觉知，去经历和观察的那个你</tspan></tspan></text></g></g><g id="b665f7418d19317d"><rect x="549" y="472.46875" rx="1px" ry="1px" width="863" height="27" style="fill: transparent; stroke:none;"></rect><g><text text-anchor="start" align="top" anchor="start" font-size="13px" font-weight="400" fill="rgb(13, 11, 34)" style="font-size:13px;font-family:微软雅黑;color:#0D0B22;font-style:normal;text-align:left;font-weight:400;"><tspan x="558" y="492"><tspan>你头脑中的想法，是你大脑为了你的自我而思考的，而你本身不是大脑，而是那个观察的你。就像你在梦境，你体会和看到的，第三人称视角的梦。</tspan></tspan></text></g></g><g id="2027f3fa279a87af"><rect x="549" y="516.703125" rx="1px" ry="1px" width="824" height="27" style="fill: transparent; stroke:none;"></rect><g><text text-anchor="start" align="top" anchor="start" font-size="13px" font-weight="400" fill="rgb(13, 11, 34)" style="font-size:13px;font-family:微软雅黑;color:#0D0B22;font-style:normal;text-align:left;font-weight:400;"><tspan x="558" y="536"><tspan>在生活中，同时也是，摒弃你头脑中的想法，把一切（所有的未来和过去和现在）都当成第三者，而你仅仅是一个观察者，观察已发生的一切</tspan></tspan></text></g></g><g id="a589b77b95d506c2"><rect x="549" y="560.9375" rx="1px" ry="1px" width="382" height="27" style="fill: transparent; stroke:none;"></rect><g><text text-anchor="start" align="top" anchor="start" font-size="13px" font-weight="400" fill="rgb(13, 11, 34)" style="font-size:13px;font-family:微软雅黑;color:#0D0B22;font-style:normal;text-align:left;font-weight:400;"><tspan x="558" y="580"><tspan>同时，你作为参与者，你的本我可以控制自我去选择创造这一切</tspan></tspan></text></g></g><g id="78376c5ca10c"><rect x="413" y="300.453125" rx="1px" ry="1px" width="124" height="33" style="fill: transparent; stroke:none;"></rect><g><text text-anchor="start" align="top" anchor="start" font-size="16px" font-weight="normal" fill="rgb(13, 11, 34)" style="font-size:16px;font-family:微软雅黑;color:#0D0B22;font-style:normal;text-align:left;font-weight:normal;"><tspan x="427" y="322"><tspan>脑子中的声音</tspan></tspan></text></g></g><g id="0dd56e9c09ba"><rect x="613" y="281" rx="1px" ry="1px" width="265" height="27" style="fill: transparent; stroke:none;"></rect><g><text text-anchor="start" align="top" anchor="start" font-size="13px" font-weight="400" fill="rgb(13, 11, 34)" style="font-size:13px;font-family:微软雅黑;color:#0D0B22;font-style:normal;text-align:left;font-weight:400;"><tspan x="622" y="300"><tspan>停止接收大脑中无时无刻不发出消极的声音</tspan></tspan></text></g></g><g id="376d2ba88b5c"><rect x="613" y="325.234375" rx="1px" ry="1px" width="200" height="27" style="fill: transparent; stroke:none;"></rect><g><text text-anchor="start" align="top" anchor="start" font-size="13px" font-weight="400" fill="rgb(13, 11, 34)" style="font-size:13px;font-family:微软雅黑;color:#0D0B22;font-style:normal;text-align:left;font-weight:400;"><tspan x="622" y="344"><tspan>全心全意的投入你正在做的事情</tspan></tspan></text></g></g><g id="0291282e6d37"><rect x="413" y="197.453125" rx="1px" ry="1px" width="108" height="33" style="fill: transparent; stroke:none;"></rect><g><text text-anchor="start" align="top" anchor="start" font-size="16px" font-weight="normal" fill="rgb(13, 11, 34)" style="font-size:16px;font-family:微软雅黑;color:#0D0B22;font-style:normal;text-align:left;font-weight:normal;"><tspan x="427" y="219"><tspan>与困难为友</tspan></tspan></text></g></g><g id="6b301358daf4"><rect x="597" y="178" rx="1px" ry="1px" width="278" height="27" style="fill: transparent; stroke:none;"></rect><g><text text-anchor="start" align="top" anchor="start" font-size="13px" font-weight="400" fill="rgb(13, 11, 34)" style="font-size:13px;font-family:微软雅黑;color:#0D0B22;font-style:normal;text-align:left;font-weight:400;"><tspan x="606" y="197"><tspan>如果与困难为敌，你将花费很多时间在对抗上</tspan></tspan></text></g></g><g id="9e3fed764199"><rect x="597" y="222.234375" rx="1px" ry="1px" width="421" height="27" style="fill: transparent; stroke:none;"></rect><g><text text-anchor="start" align="top" anchor="start" font-size="13px" font-weight="400" fill="rgb(13, 11, 34)" style="font-size:13px;font-family:微软雅黑;color:#0D0B22;font-style:normal;text-align:left;font-weight:400;"><tspan x="606" y="241"><tspan>把心从阻碍上面移开，比如消极谩骂和不幸，你就不会因此而变得不幸</tspan></tspan></text></g></g><g id="1cd26bc8ba92f423"><rect x="1094" y="222.234375" rx="1px" ry="1px" width="369" height="27" style="fill: transparent; stroke:none;"></rect><g><text text-anchor="start" align="top" anchor="start" font-size="13px" font-weight="400" fill="rgb(13, 11, 34)" style="font-size:13px;font-family:微软雅黑;color:#0D0B22;font-style:normal;text-align:left;font-weight:400;"><tspan x="1103" y="241"><tspan>这些事不会让你困惑，让你困惑的是你自己选择为这些事困惑</tspan></tspan></text></g></g><g id="812b3a9306dd"><rect x="413" y="71.5703125" rx="1px" ry="1px" width="92" height="33" style="fill: transparent; stroke:none;"></rect><g><text text-anchor="start" align="top" anchor="start" font-size="16px" font-weight="normal" fill="rgb(13, 11, 34)" style="font-size:16px;font-family:微软雅黑;color:#0D0B22;font-style:normal;text-align:left;font-weight:normal;"><tspan x="427" y="93"><tspan>抛去理性</tspan></tspan></text></g></g><g id="ac25a09c6779"><rect x="581" y="74.234375" rx="1px" ry="1px" width="239" height="27" style="fill: transparent; stroke:none;"></rect><g><text text-anchor="start" align="top" anchor="start" font-size="13px" font-weight="400" fill="rgb(13, 11, 34)" style="font-size:13px;font-family:微软雅黑;color:#0D0B22;font-style:normal;text-align:left;font-weight:400;"><tspan x="590" y="93"><tspan>如果你想完成一件事情，但是有阻碍时</tspan></tspan></text></g></g><g id="180ba2ac7c267f9b"><rect x="896" y="30" rx="1px" ry="1px" width="70" height="27" style="fill: transparent; stroke:none;"></rect><g><text text-anchor="start" align="top" anchor="start" font-size="13px" font-weight="400" fill="rgb(13, 11, 34)" style="font-size:13px;font-family:微软雅黑;color:#0D0B22;font-style:normal;text-align:left;font-weight:400;"><tspan x="905" y="49"><tspan>抛去阻碍</tspan></tspan></text></g></g><g id="802fe951a28c18cb"><rect x="896" y="74.234375" rx="1px" ry="1px" width="96" height="27" style="fill: transparent; stroke:none;"></rect><g><text text-anchor="start" align="top" anchor="start" font-size="13px" font-weight="400" fill="rgb(13, 11, 34)" style="font-size:13px;font-family:微软雅黑;color:#0D0B22;font-style:normal;text-align:left;font-weight:400;"><tspan x="905" y="93"><tspan>抛去理性思考</tspan></tspan></text></g></g><g id="dfa250237315d5b4"><rect x="896" y="118.46875" rx="1px" ry="1px" width="122" height="27" style="fill: transparent; stroke:none;"></rect><g><text text-anchor="start" align="top" anchor="start" font-size="13px" font-weight="400" fill="rgb(13, 11, 34)" style="font-size:13px;font-family:微软雅黑;color:#0D0B22;font-style:normal;text-align:left;font-weight:400;"><tspan x="905" y="138"><tspan>全神贯注于事情上</tspan></tspan></text></g></g><g transform="translate(413, 954)" id="sdjakdjak0"><g id="subline_e2464c2f242a958e" transform="translate(0.5, 0.5)"><path id="line_0f5d79f8f0344628" d="M 76 52.015625 C 122 52.015625 114 27.234375 152 27.234375 L 755 27.234375" p="e2464c2f242a958e" stroke="#80BA4C" fill="none" stroke-linecap="square" stroke-width="3"></path><path id="line_ed204c3c5d432061" d="M 76 52.015625 C 122 52.015625 114 71.46875 152 71.46875 L 404 71.46875" p="e2464c2f242a958e" stroke="#80BA4C" fill="none" stroke-linecap="square" stroke-width="3"></path></g><g transform="translate(0.5,0.5)"></g><g class="svg-summary-con" transform="translate(0.5,0.5)"></g><g class="svg-boundary-con" transform="translate(0.5,0.5)"></g></g><g transform="translate(413, 889)" id="sdjakdjak1"><g id="subline_2752677b67c5c72e" transform="translate(0.5, 0.5)"><path id="line_275a34322e42941e" d="M 60 32.5625 C 106 32.5625 98 29.8984375 136 29.8984375 L 856 29.8984375" p="2752677b67c5c72e" stroke="#0FBAB0" fill="none" stroke-linecap="square" stroke-width="3"></path></g><g transform="translate(0.5,0.5)"></g><g class="svg-summary-con" transform="translate(0.5,0.5)"></g><g class="svg-boundary-con" transform="translate(0.5,0.5)"></g></g><g transform="translate(413, 741)" id="sdjakdjak2"><g id="subline_fe4ffad78f3096c8" transform="translate(0.5, 0.5)"><path id="line_45b9851a890b3353" d="M 60 74.1328125 C 106 74.1328125 98 27.234375 136 27.234375 L 700 27.234375" p="fe4ffad78f3096c8" stroke="#0F80C4" fill="none" stroke-linecap="square" stroke-width="3"></path><path id="line_0a123b4853a7bebc" d="M 60 74.1328125 C 106 74.1328125 98 71.46875 136 71.46875 L 570 71.46875" p="fe4ffad78f3096c8" stroke="#0F80C4" fill="none" stroke-linecap="square" stroke-width="3"></path><path id="line_7daa74f6f569f353" d="M 60 74.1328125 C 106 74.1328125 98 115.703125 136 115.703125 L 466 115.703125" p="fe4ffad78f3096c8" stroke="#0F80C4" fill="none" stroke-linecap="square" stroke-width="3"></path></g><g transform="translate(0.5,0.5)"></g><g class="svg-summary-con" transform="translate(0.5,0.5)"></g><g class="svg-boundary-con" transform="translate(0.5,0.5)"></g></g><g transform="translate(413, 620)" id="sdjakdjak3"><g id="subline_c3c5045d6e586609" transform="translate(0.5, 0.5)"><path id="line_8a7449cf63c37bef" d="M 108 60.59375 C 154 60.59375 146 27.234375 184 27.234375 L 722 27.234375" p="c3c5045d6e586609" stroke="#FD5155" fill="none" stroke-linecap="square" stroke-width="3"></path><path id="line_927671371f4b5dbd" d="M 108 60.59375 C 154 60.59375 146 88.625 184 88.625 L 1102 88.625" p="c3c5045d6e586609" stroke="#FD5155" fill="none" stroke-linecap="square" stroke-width="3"></path></g><g transform="translate(0.5,0.5)"></g><g class="svg-summary-con" transform="translate(0.5,0.5)"></g><g class="svg-boundary-con" transform="translate(0.5,0.5)"></g></g><g transform="translate(413, 384)" id="sdjakdjak4"><g id="subline_49e463ba2cfc4206" transform="translate(0.5, 0.5)"><path id="line_eb032b2a5cf1cdba" d="M 60 118.3671875 C 106 118.3671875 98 27.234375 136 27.234375 L 427 27.234375" p="49e463ba2cfc4206" stroke="#FCB52A" fill="none" stroke-linecap="square" stroke-width="3"></path><path id="line_8594054089fdcaec" d="M 60 118.3671875 C 106 118.3671875 98 71.46875 136 71.46875 L 492 71.46875" p="49e463ba2cfc4206" stroke="#FCB52A" fill="none" stroke-linecap="square" stroke-width="3"></path><path id="line_b665f7418d19317d" d="M 60 118.3671875 C 106 118.3671875 98 115.703125 136 115.703125 L 999 115.703125" p="49e463ba2cfc4206" stroke="#FCB52A" fill="none" stroke-linecap="square" stroke-width="3"></path><path id="line_2027f3fa279a87af" d="M 60 118.3671875 C 106 118.3671875 98 159.9375 136 159.9375 L 960 159.9375" p="49e463ba2cfc4206" stroke="#FCB52A" fill="none" stroke-linecap="square" stroke-width="3"></path><path id="line_a589b77b95d506c2" d="M 60 118.3671875 C 106 118.3671875 98 204.171875 136 204.171875 L 518 204.171875" p="49e463ba2cfc4206" stroke="#FCB52A" fill="none" stroke-linecap="square" stroke-width="3"></path></g><g transform="translate(0.5,0.5)"></g><g class="svg-summary-con" transform="translate(0.5,0.5)"></g><g class="svg-boundary-con" transform="translate(0.5,0.5)"></g></g><g transform="translate(413, 281)" id="sdjakdjak5"><g id="subline_78376c5ca10c" transform="translate(0.5, 0.5)"><path id="line_0dd56e9c09ba" d="M 124 52.015625 C 170 52.015625 162 27.234375 200 27.234375 L 465 27.234375" p="78376c5ca10c" stroke="#FA5465" fill="none" stroke-linecap="square" stroke-width="3"></path><path id="line_376d2ba88b5c" d="M 124 52.015625 C 170 52.015625 162 71.46875 200 71.46875 L 400 71.46875" p="78376c5ca10c" stroke="#FA5465" fill="none" stroke-linecap="square" stroke-width="3"></path></g><g transform="translate(0.5,0.5)"></g><g class="svg-summary-con" transform="translate(0.5,0.5)"></g><g class="svg-boundary-con" transform="translate(0.5,0.5)"></g></g><g transform="translate(413, 178)" id="sdjakdjak6"><g id="subline_0291282e6d37" transform="translate(0.5, 0.5)"><path id="line_6b301358daf4" d="M 108 52.015625 C 154 52.015625 146 27.234375 184 27.234375 L 462 27.234375" p="0291282e6d37" stroke="#02ACF4" fill="none" stroke-linecap="square" stroke-width="3"></path><path id="line_9e3fed764199" d="M 108 52.015625 C 154 52.015625 146 71.46875 184 71.46875 L 605 71.46875" p="0291282e6d37" stroke="#02ACF4" fill="none" stroke-linecap="square" stroke-width="3"></path><path id="line_1cd26bc8ba92f423" d="M 605 71.46875 C 651 71.46875 643 71.46875 681 71.46875 L 1050 71.46875" p="9e3fed764199" stroke="#02ACF4" fill="none" stroke-linecap="square" stroke-width="3"></path></g><g transform="translate(0.5,0.5)"></g><g class="svg-summary-con" transform="translate(0.5,0.5)"></g><g class="svg-boundary-con" transform="translate(0.5,0.5)"></g></g><g transform="translate(413, 30)" id="sdjakdjak7"><g id="subline_812b3a9306dd" transform="translate(0.5, 0.5)"><path id="line_ac25a09c6779" d="M 92 74.1328125 C 138 74.1328125 130 71.46875 168 71.46875 L 407 71.46875" p="812b3a9306dd" stroke="#DD489D" fill="none" stroke-linecap="square" stroke-width="3"></path><path id="line_180ba2ac7c267f9b" d="M 407 71.46875 C 453 71.46875 445 27.234375 483 27.234375 L 553 27.234375" p="ac25a09c6779" stroke="#DD489D" fill="none" stroke-linecap="square" stroke-width="3"></path><path id="line_802fe951a28c18cb" d="M 407 71.46875 C 453 71.46875 445 71.46875 483 71.46875 L 579 71.46875" p="ac25a09c6779" stroke="#DD489D" fill="none" stroke-linecap="square" stroke-width="3"></path><path id="line_dfa250237315d5b4" d="M 407 71.46875 C 453 71.46875 445 115.703125 483 115.703125 L 605 115.703125" p="ac25a09c6779" stroke="#DD489D" fill="none" stroke-linecap="square" stroke-width="3"></path></g><g transform="translate(0.5,0.5)"></g><g class="svg-summary-con" transform="translate(0.5,0.5)"></g><g class="svg-boundary-con" transform="translate(0.5,0.5)"></g></g><g transform="translate(30, 508.5)" id="sdjakdjak8"><g id="subline_root" transform="translate(0.5, 0.5)"></g><g transform="translate(0.5,0.5)"></g><g class="svg-summary-con" transform="translate(0.5,0.5)"></g><g class="svg-boundary-con" transform="translate(0.5,0.5)"></g></g><g id="root"><rect x="30" y="508.5" rx="7px" ry="7px" width="283" height="68" style="fill: #ffffff; stroke:none;"></rect><g><text text-anchor="start" align="top" anchor="start" font-size="24px" font-weight="normal" fill="rgb(42, 46, 54)" style="font-size:24px;font-family:微软雅黑;color:#2A2E36;font-style:normal;text-align:left;font-weight:normal;"><tspan x="68" y="551"><tspan>臣服实验-作者采访</tspan></tspan></text></g></g></svg>